HIERARCHY
ROOT hip
{
	OFFSET 0.000000 0.000000 0.000000 
	CHANNELS 6 Xposition Yposition Zposition Xrotation Zrotation Yrotation
	JOINT abdomen
	{
		OFFSET 0.000000 3.402643 0.000000 
		CHANNELS 3 Xrotation Zrotation Yrotation
		JOINT chest
		{
			OFFSET 0.000000 8.438565 -0.680529 
			CHANNELS 3 Xrotation Zrotation Yrotation
			JOINT neck
			{
				OFFSET 0.000000 10.207942 -0.272212 
				CHANNELS 3 Xrotation Zrotation Yrotation
				JOINT head
				{
					OFFSET 0.000000 3.130431 0.000000 
					CHANNELS 3 Xrotation Zrotation Yrotation
					End Site
					{
						OFFSET 0.000000 3.130435 0.000000 
					}
				}
			}
			JOINT lCollar
			{
				OFFSET 3.470700 6.669187 -0.816635 
				CHANNELS 3 Yrotation Zrotation Xrotation
				JOINT lShldr
				{
					OFFSET 3.198488 0.000000 0.000000 
					CHANNELS 3 Zrotation Yrotation Xrotation
					JOINT lForeArm
					{
						OFFSET 10.139888 0.000000 0.000000 
						CHANNELS 3 Yrotation Zrotation Xrotation
						JOINT lHand
						{
							OFFSET 8.370511 0.000000 0.000000 
							CHANNELS 3 Zrotation Yrotation Xrotation
							End Site
							{
								OFFSET 4.083176 0.000000 0.000000 
							}
						}
					}
				}
			}
			JOINT rCollar
			{
				OFFSET -3.470700 6.669187 -0.816635 
				CHANNELS 3 Yrotation Zrotation Xrotation
				JOINT rShldr
				{
					OFFSET -3.198488 0.000000 0.000000 
					CHANNELS 3 Zrotation Yrotation Xrotation
					JOINT rForeArm
					{
						OFFSET -10.139888 0.000000 0.000000 
						CHANNELS 3 Yrotation Zrotation Xrotation
						JOINT rHand
						{
							OFFSET -8.370511 0.000000 0.000000 
							CHANNELS 3 Zrotation Yrotation Xrotation
							End Site
							{
								OFFSET -4.083176 0.000000 0.000000 
							}
						}
					}
				}
			}
		}
	}
	JOINT lThigh
	{
		OFFSET 5.308129 -1.633274 1.361059 
		CHANNELS 3 Xrotation Zrotation Yrotation
		JOINT lShin
		{
			OFFSET -2.041588 -20.007561 0.000000 
			CHANNELS 3 Xrotation Zrotation Yrotation
			JOINT lFoot
			{
				OFFSET 0.000000 -19.190928 -1.224953 
				CHANNELS 3 Xrotation Yrotation Zrotation
				End Site
				{
					OFFSET 0.000000 -2.449906 4.627600 
				}
			}
		}
	}
	JOINT rThigh
	{
		OFFSET -5.308129 -1.633274 1.361059 
		CHANNELS 3 Xrotation Zrotation Yrotation
		JOINT rShin
		{
			OFFSET 2.041588 -20.007561 0.000000 
			CHANNELS 3 Xrotation Zrotation Yrotation
			JOINT rFoot
			{
				OFFSET 0.000000 -19.190928 -1.224953 
				CHANNELS 3 Xrotation Yrotation Zrotation
				End Site
				{
					OFFSET 0.000000 -2.449906 4.627600 
				}
			}
		}
	}
}
MOTION
Frames: 10
Frame Time: 0.033333
173.811951 10.305796 4.729091 -1.099230 -21.119499 85.550400 0.000000 0.000000 0.000000 5.982860 12.093900 -2.296090 -22.131701 -8.153190 -0.468671 4.341790 -4.586950 -1.348320 2.000000 -2.000000 0.000000 -74.002098 -17.625401 23.156401 -39.273499 0.812926 24.502001 -16.465700 -8.167710 0.596613 -2.000000 2.000000 0.000000 71.880798 48.806499 -8.128300 42.873600 -0.991268 28.673700 -23.434500 -2.834900 -1.463360 -20.148060 10.952592 0.693531 -3.361387 -1.909789 1.107927 -10.737442 1.528527 -13.811680 -18.061710 -9.185369 -15.770150 -3.444901 1.941195 0.752858 -10.723052 2.938853 15.133129 
174.672455 7.044284 4.913909 -1.438570 -23.587099 85.486603 0.000000 0.000000 0.000000 6.666490 11.864900 -1.269160 -22.422600 -7.637370 -2.017980 0.558905 -3.742210 -1.102830 2.000000 -2.000000 0.000000 -76.148903 -25.594900 17.260599 -34.307800 1.661640 25.473101 -1.895180 -4.383350 -1.005390 -2.000000 2.000000 0.000000 75.762497 51.752399 -14.990800 42.907902 -1.442880 35.556198 -30.317600 -4.754060 -1.001710 -39.009155 11.795716 0.456068 24.260450 -1.996927 -4.107176 -10.833995 1.155130 -10.285624 -23.491924 -7.555710 -19.141754 -3.578289 2.036999 5.314885 4.378094 4.597486 6.154218 
174.470245 4.282782 5.135631 -0.556486 -26.493099 85.663902 0.000000 0.000000 0.000000 8.416030 9.459460 -0.432921 -23.158800 -6.190350 -4.326720 -8.643140 -3.320600 -0.981577 2.000000 -2.000000 0.000000 -76.017799 -40.159901 9.200720 -26.993500 3.329570 27.023701 7.778370 -1.673250 -1.522870 -2.000000 2.000000 0.000000 77.051003 55.558399 -22.055401 40.700001 -1.800590 40.732800 -34.454300 -5.872780 -0.617494 -53.731594 12.673175 4.082475 46.320599 -0.941412 -10.270502 -16.657030 0.717796 -3.858043 -47.640774 -14.049665 -15.166717 39.094398 1.094090 5.785737 -14.255561 4.461652 1.112850 
175.488022 2.121171 5.303094 -0.494032 -29.569401 85.485100 0.000000 0.000000 0.000000 7.488840 9.170510 0.546113 -20.690100 -5.907230 -5.733790 -18.915501 -2.910680 -0.858090 2.000000 -2.000000 0.000000 -78.019203 -44.363899 6.579330 -16.797100 5.801340 25.753500 11.711900 -0.555516 -1.594010 -2.000000 2.000000 0.000000 80.340302 50.864601 -20.027300 32.376202 -3.255850 37.679798 -35.123699 -6.053010 -0.553727 -64.055397 14.353118 4.467994 59.960743 0.003071 -12.352061 -21.074795 0.731317 -2.364483 -58.432823 -15.983949 -14.516095 54.022518 0.185603 6.483100 -19.085821 4.394334 0.015399 
176.199127 0.401161 5.492675 -1.805600 -31.286200 85.884499 0.000000 0.000000 0.000000 6.141350 10.147700 1.359710 -19.128700 -5.531050 -5.827710 -21.614401 -1.586600 -0.472678 2.000000 -2.000000 0.000000 -83.686501 -45.760502 11.497000 -4.539450 5.186990 19.540400 12.738300 -0.261552 -1.599350 -2.000000 2.000000 0.000000 83.559303 47.546501 -10.013400 20.838400 -4.334010 28.765900 -28.823200 -4.341570 -1.124110 -69.723335 15.799953 2.666486 68.420929 0.724743 -13.001611 -25.035675 0.852191 -1.983801 -62.683468 -15.233563 -13.394835 61.753380 -0.468594 4.747439 -25.384178 4.083292 0.918197 
177.776367 -0.365882 5.638433 -0.895214 -29.225500 87.318703 0.000000 0.000000 0.000000 11.971700 7.931450 -0.062207 -23.449800 -3.785400 -5.406700 -21.302299 -2.557080 -0.756797 2.000000 -2.000000 0.000000 -90.107002 -60.697701 23.846600 -0.566343 4.631230 16.410801 -5.425370 -5.339010 -0.711849 -2.000000 2.000000 0.000000 83.001099 62.784801 -2.246730 12.970500 -5.559060 24.766399 -16.709900 -0.906014 -1.684220 -68.346367 12.968142 1.026199 72.211700 1.173853 -11.162877 -27.261482 1.089540 -3.578801 -61.955513 -16.324980 -10.539467 66.961098 -0.947191 1.545451 -29.167395 3.731215 2.693652 
178.460510 -0.923643 5.841418 -2.621890 -31.457701 88.329399 0.000000 0.000000 0.000000 7.877580 9.297760 -0.838001 -22.538601 -3.341380 -4.350590 -21.111700 -3.920420 -1.154560 2.000000 -2.000000 0.000000 -94.740303 -54.044601 26.972200 -0.976700 4.319020 15.735000 -21.182100 -9.280430 1.307020 -2.000000 2.000000 0.000000 85.035896 55.901402 12.005600 11.268500 -6.902740 25.232401 -13.104500 0.124527 -1.709330 -68.925659 13.738183 -0.149782 73.822189 1.219832 -12.594072 -34.424248 0.778698 1.826945 -63.344082 -15.456795 -11.242637 70.166527 -1.240168 0.528815 -31.447710 3.588465 3.333087 
180.142197 -0.704473 5.969720 -3.076120 -31.340200 88.851898 0.000000 0.000000 0.000000 7.946170 8.822090 -1.126680 -23.912201 -2.429540 -4.352910 -21.830799 -4.676690 -1.369290 2.000000 -2.000000 0.000000 -96.035103 -54.204601 22.821600 -4.263280 3.753680 15.786500 -20.784201 -9.185800 1.241370 -2.000000 2.000000 0.000000 84.506897 54.259300 20.290199 15.348000 -7.717830 29.163099 -16.523500 -0.862287 -1.686410 -66.589828 13.271265 -1.133345 73.829330 1.251335 -11.218247 -35.392437 0.877731 1.137001 -60.955334 -14.667285 -10.879183 70.137466 -1.278951 -1.024958 -32.018398 3.487727 4.024725 
181.766617 0.229284 6.021407 -2.786450 -29.629101 89.140503 0.000000 0.000000 0.000000 9.636480 8.435730 -1.824770 -25.961000 -2.459580 -3.861760 -22.964300 -4.588300 -1.346670 2.000000 -2.000000 0.000000 -93.699097 -53.515099 23.148500 -14.088800 1.352200 14.651200 -10.264100 -6.615970 -0.202045 -2.000000 2.000000 0.000000 82.671997 55.595001 18.831699 20.961500 -5.514590 30.958401 -22.948999 -2.694850 -1.487700 -60.740429 11.708623 -2.290789 70.417969 1.008806 -8.426389 -34.690853 1.033396 -0.729478 -55.238739 -13.874733 -9.929028 66.543297 -0.986811 -2.828930 -31.389931 3.374483 5.146099 
183.576385 1.638231 6.121927 -2.906410 -27.899200 88.096298 0.000000 0.000000 0.000000 8.433060 8.038310 -1.145710 -25.822800 -2.817800 -3.662630 -22.550900 -4.131060 -1.217460 2.000000 -2.000000 0.000000 -89.494400 -46.427101 32.702000 -23.889900 0.144198 15.804600 -14.487300 -7.683770 0.319530 -2.000000 2.000000 0.000000 80.316101 50.269100 22.460501 25.695499 -3.145800 29.013300 -20.809999 -2.091100 -1.573660 -53.598709 12.127618 -3.014437 64.821693 0.540156 -6.569641 -32.790417 1.211812 -3.102134 -48.547451 -11.921298 -9.286606 60.285545 -0.470640 -3.862798 -28.475750 3.451973 5.512815 
